<?xml version="1.0" encoding="UTF-8"?>
<svg id="Layer_1" xmlns="http://www.w3.org/2000/svg" width="390.562" height="381.801" version="1.1" viewBox="0 0 390.562 381.801">
  <!-- Generator: Adobe Illustrator 29.5.1, SVG Export Plug-In . SVG Version: 2.1.0 Build 141)  -->
  <path d="M343.083,63.224l22.164,32.288c-7.234,16.319-29.196,30.732-22.438,50.477,6.516,19.038,30.649,19.145,46.236,27.27,2.834,3.243,1.173,35.385-.75,41.275-13.007,5.883-33.897,7.296-42.989,19.011-16.606,21.398,9.315,39.568,17.006,57.905-6.953,11.28-14.77,24.169-25.092,32.145-17.214-3.844-36.616-17.915-53.275-6.41-15.815,10.922-9.502,35.621-11.826,52.174-.762,2.227-13.658,6.415-16.628,7.372-4.04,1.302-20.364,6.244-23.215,4.814-3.29-1.65-17.096-24.928-22.986-30.035-8.929-7.74-21.876-8.483-31.505-1.486-6.002,4.361-23.192,30.715-26.94,30.926-3.411.193-21.727-6.222-26.082-7.913-2.142-.832-10.169-3.646-10.992-5.008-2.59-15.926,4.307-37.444-7.496-50.504-15.701-17.373-39.014-1.014-57.473,1.55-2.082-.328-10.814-12.625-12.743-15.334-1.758-2.468-10.689-15.509-10.745-17.214,7.235-16.438,29.234-30.576,22.438-50.477-6.392-18.717-30.771-19.444-46.236-27.27-2.834-3.243-1.173-35.385.75-41.275,14.025-6.235,38.515-7.876,45.745-23.255,10.034-21.344-12.659-36.017-19.761-53.661,6.679-11.404,14.938-24.06,25.092-32.145,13.302,3.093,32.626,14.144,45.957,10.091,24.552-7.465,16.317-37.241,19.472-56.525,1.434-2.372,31.979-11.664,36.154-11.946,1.279-.087,2.142-.179,3.36.431,2.996,1.501,17.242,25.055,22.986,30.035,8.938,7.748,21.928,8.569,31.509,1.49,5.934-4.386,23.251-30.721,26.937-30.93,3.341-.189,21.812,6.226,26.09,7.905,1.829.718,10.489,4.171,10.993,5.007,2.616,15.822-4.172,35.97,6.655,49.345,16.14,19.939,39.871,1.055,59.629-.121ZM185.081,97.318c-57.703,5.389-96.11,64.324-80.298,119.699,20.723,72.573,115.932,92.438,163.471,33.474,53.062-65.813.507-160.988-83.173-153.173Z"/>
  <metadata>
    <sfw xmlns="http://ns.adobe.com/SaveForWeb/1.0/">
      <slices/>
      <sliceSourceBounds x="1860.47" y="-505.11" width="390.56" height="381.8" bottomLeftOrigin="true"/>
    </sfw>
  </metadata>
</svg>