<?xml version="1.0" encoding="utf-8"?>
<!-- Generator: Adobe Illustrator 27.0.0, SVG Export Plug-In . SVG Version: 6.00 Build 0)  -->
<svg version="1.1" id="Layer_1" xmlns="http://www.w3.org/2000/svg" xmlns:xlink="http://www.w3.org/1999/xlink" x="0px" y="0px"
	 viewBox="0 0 24.7 25.7" style="enable-background:new 0 0 24.7 25.7;" xml:space="preserve">
<g>
	<path d="M8.9,7.8c0-0.8-0.8-1.4-1.8-1.4S5.3,7,5.3,7.8s0.8,1.4,1.8,1.4S8.9,8.6,8.9,7.8z"/>
	<ellipse cx="8.2" cy="16.8" rx="2.2" ry="2"/>
	<path d="M19.2,15.5c-1,0-1.8,0.7-1.8,1.5c0,0.9,0.8,1.5,1.8,1.5S21,17.9,21,17C21,16.2,20.2,15.5,19.2,15.5z"/>
	<path d="M23.6,12.6c-0.1-0.1-0.3-0.1-0.4-0.1c-0.2,0.1-0.4,0.1-0.7,0c-0.3-0.1-0.5-0.2-0.7-0.5c-0.1-0.1-0.3-0.2-0.4-0.2
		c-0.1,0-0.3,0.1-0.4,0.2c-0.2,0.2-0.5,0.3-0.8,0.3c-0.4,0-0.7-0.2-1-0.5c-0.1-0.1-0.2-0.2-0.3-0.3c-0.1-0.1-0.2-0.2-0.4-0.2
		c-0.2,0-0.3,0-0.4,0.1c-0.4,0.4-1.2,0.3-1.8-0.2c-0.3-0.3-0.5-0.8-0.5-1.2c0-0.2,0-0.3-0.1-0.4c-0.1-0.1-0.3-0.2-0.4-0.1
		c-0.2,0-0.5,0-0.8-0.1c-0.2-0.1-0.3-0.2-0.5-0.3c-0.3-0.3-0.4-0.6-0.5-1c0-0.3,0.1-0.6,0.3-0.8c0.1-0.1,0.2-0.3,0.2-0.5
		S14,6.3,13.8,6.3c-0.2-0.1-0.4-0.2-0.6-0.4c-0.5-0.5-0.6-1.3-0.1-1.8c0.2-0.2,0.2-0.5,0.1-0.7C13.1,3.2,13,3.1,13,3
		c0-0.2-0.1-0.3,0-0.5c0-0.1,0-0.3-0.1-0.4c-0.1-0.1-0.2-0.2-0.4-0.2c-0.2,0-0.4,0-0.5,0C5.4,1.9,0,7.2,0,13.8
		c0,5.2,3.3,9.8,8.3,11.4c1.2,0.4,2.4,0.6,3.6,0.6l0.3,0c0,0,0,0,0,0c6.4-0.1,11.7-5.5,11.7-11.9c0-0.3,0-0.6,0-0.9
		C23.8,12.8,23.7,12.6,23.6,12.6z M12.5,24.7C12.5,24.7,12.5,24.7,12.5,24.7c-0.1-0.2-0.2-0.4-0.4-0.6c0,0,0-0.1-0.1-0.1
		c-0.1-0.2-0.3-0.3-0.5-0.4c0,0-0.1,0-0.1-0.1c-0.2-0.1-0.4-0.2-0.6-0.3c0,0-0.1,0-0.1,0c-0.2-0.1-0.4-0.1-0.7-0.1
		c-0.2,0-0.4,0-0.6,0.1c-0.1,0-0.1,0-0.2,0.1c-0.1,0-0.3,0.1-0.4,0.2c-0.1,0-0.1,0.1-0.2,0.1c-0.1,0.1-0.2,0.1-0.3,0.2
		C8.5,23.9,8.4,24,8.4,24c0,0-0.1,0.1-0.1,0.1C3.9,22.6,1,18.5,1,13.8c0-6,4.9-10.9,10.9-10.9c0,0,0,0,0,0c0,0.1,0,0.2,0.1,0.3
		c0,0.1,0.1,0.2,0.1,0.4c-0.6,0.8-0.5,2.1,0.4,3c0.1,0.1,0.3,0.2,0.4,0.3c-0.4,0.8-0.2,1.9,0.6,2.7c0.2,0.2,0.4,0.4,0.7,0.5
		c0.3,0.1,0.5,0.2,0.8,0.2c0.1,0.5,0.3,1.1,0.8,1.5l0.1,0.1c0.8,0.7,1.8,0.9,2.6,0.5c0,0,0.1,0.1,0.1,0.1c0.4,0.4,1,0.7,1.6,0.8
		c0.5,0,0.9-0.1,1.3-0.3c0.2,0.2,0.5,0.4,0.9,0.4c0.2,0.1,0.4,0.1,0.6,0.1c0,0.1,0,0.2,0,0.3C22.9,19.6,18.3,24.4,12.5,24.7z"/>
	<path d="M17.5,2.6c0.1,0,0.2,0,0.3,0c0.4-0.1,0.7-0.6,0.6-1.1c-0.1-0.7-0.8-1.5-2-1.4c-0.1,0-0.1,0-0.2,0c-0.2,0.1-0.5,0.4-0.3,1.2
		C16.1,1.9,16.8,2.6,17.5,2.6z M17.2,1.3c0.1,0.1,0.1,0.2,0.1,0.2c-0.1-0.1-0.3-0.2-0.4-0.5C17.1,1.1,17.2,1.2,17.2,1.3z"/>
	<path d="M17.8,5.6c-0.1,0-0.6-0.1-1.2,0.6c-0.3,0.4-0.4,0.8-0.3,1.3c0.1,0.5,0.5,0.8,1,1c0.1,0,0.2,0,0.3,0c0.6,0,1.3-0.4,1.5-1
		c0.1-0.3,0.3-1.2-1.1-1.9C17.9,5.7,17.8,5.6,17.8,5.6z M18.1,7.2c-0.1,0.2-0.5,0.4-0.6,0.3c-0.2,0-0.3-0.1-0.3-0.3
		c0-0.1,0-0.3,0.1-0.4c0.1-0.1,0.2-0.2,0.3-0.2C18,6.9,18.2,7.1,18.1,7.2z"/>
	<path d="M24.3,8.1c-0.4-0.3-1-0.1-1.3,0.3c-0.2,0.3-0.4,0.8,0.1,1.3c0,0,0.1,0.1,0.1,0.1c0.1,0,0.2,0.1,0.3,0.1
		c0.2,0,0.4-0.1,0.6-0.3c0.3-0.2,0.5-0.6,0.5-0.9C24.7,8.5,24.6,8.3,24.3,8.1z"/>
</g>
</svg>
