<?xml version="1.0" encoding="utf-8"?>
<!-- Generator: Adobe Illustrator 27.0.0, SVG Export Plug-In . SVG Version: 6.00 Build 0)  -->
<svg version="1.1" id="Layer_1" xmlns="http://www.w3.org/2000/svg" xmlns:xlink="http://www.w3.org/1999/xlink" x="0px" y="0px"
	 viewBox="0 0 300 300" style="enable-background:new 0 0 300 300;" xml:space="preserve">
<style type="text/css">
	.st0{fill:#221F20;}
	.st1{fill:#FFFFFF;}
	.st2{fill:#BCBEC0;}
</style>
<circle class="st0" cx="149.6" cy="150" r="150"/>
<circle class="st1" cx="149.6" cy="150" r="138.1"/>
<g>
	<path d="M247.3,115.3c0,2.5-3.5,4-5.4,5.1c-3.4,2-6.8,4.2-10,6.6c-7.9,5.8-16.4,6.8-25.4,3.5c-3.3-1.2-6.3-3.5-9.1-5.7
		c-6.1-4.8-12.8-6.6-20.3-4.7c-2.7,0.7-5.2,2.2-7.7,3.6c-1.5,0.8-2.7,2-4.1,3.1c-10.1,7.5-22,7.6-32.2,0.2c-1.5-1.1-3-2.3-4.6-3.4
		c-8-5.6-18-5.5-25.9,0.1c-1.9,1.3-3.6,2.8-5.5,4.1c-3.7,2.7-7.9,4.3-12.5,4.5c-1.5,0.1-1.9,1-2.4,2c-6.6,12.4-9.6,25.7-8.8,39.7
		c1.1,19.7,8.8,36.3,22.6,50.2c2.1,2.1,4.6,3.1,7.5,3.1c30.4,0,60.8,0,91.3,0c3,0,5.5-1.1,7.6-3.3c15.8-16,23.4-35.2,22.5-57.7
		c-0.1-3.2-0.6-6.4-1-9.6c-0.4-3,1.3-5.5,4.2-6c2.7-0.5,5.5,1.2,5.8,4.1c0.7,6.3,1.5,12.6,1.3,18.9c-0.5,16.1-5.3,30.9-14.4,44.2
		c-3.4,4.9-7.5,9.4-11.5,13.8c-3.7,4-8.7,5.9-14.2,5.9c-30.6,0-61.2,0-91.8,0c-5.5,0-10.3-2-14.2-5.8
		c-14.9-14.7-23.6-32.5-25.7-53.3c-1.6-16.3,1.2-31.9,8.5-46.7c0.2-0.3,0.3-0.7,0.5-1.1c-5.7-3.6-11.4-7.3-17.2-10.8
		c-4-2.4-4.6-6.2-1-9.3c7.6-6.6,15.3-13.1,23-19.7c1-0.8,1.1-1.4,0.7-2.7c-1.5-4.8-1.6-9.8-0.2-14.6c2-6.9,8.1-11,15.8-11
		c29.1,0,58.2,0,87.3,0c8,0,16,0.2,24-0.1c9.5-0.3,17.4,7.2,16.9,17c-0.2,3.2,0.1,6.5-1.2,9.5c-0.2,0.4,0.4,1.3,0.9,1.7
		c7.2,6.3,14.5,12.5,21.7,18.7C244.3,110.7,247.3,112.6,247.3,115.3z M232.1,113.9c-5.7-4.9-11.1-9.5-16.4-14.2
		c-1.5-1.3-3-2.2-5.1-1.9c-0.3,0-0.6,0-0.9,0c-2.7-0.2-4.6-1.8-5.1-4.3c-0.5-2.4,0.6-4.5,3-5.8c3.8-2.1,5.1-9.7,2.1-13
		c-0.7-0.7-1.7-1.2-2.7-1.6c-0.9-0.3-1.9-0.3-2.8-0.3c-36.6,0-73.3,0-109.9,0c-0.6,0-1.3,0-1.9,0.1c-3,0.3-4.9,2.3-5.1,5.4
		c-0.1,1.4-0.1,2.8,0,4.2c0.1,3.2,1.7,4.7,4.8,4.7c29.2,0,58.3,0,87.5,0c0.8,0,1.7,0,2.5,0.1c2.7,0.4,4.6,2.5,4.6,5.2
		c0,2.6-1.7,4.7-4.4,5.2c-0.9,0.2-1.9,0.2-2.8,0.2c-31,0-62,0-93,0.1c-0.9,0-2,0.4-2.7,1c-5.3,4.4-10.5,9-15.8,13.5
		c-0.5,0.4-1,0.9-1.6,1.5c2.4,1.8,4.5,3.5,6.8,5.1c5.5,3.9,12.7,3.9,18.1,0c1.9-1.3,3.6-2.8,5.5-4.1c11-7.8,25.3-8.1,36.6-0.8
		c2.2,1.4,4.3,3.1,6.5,4.7c5.6,4.1,12.9,4.1,18.6,0c1.8-1.3,3.5-2.7,5.3-4c10.9-7.7,25.3-8,36.5-0.8c2.3,1.5,4.4,3.2,6.6,4.8
		c3.6,2.7,7.5,3.4,11.9,2.8C224.2,120.9,227.6,116.7,232.1,113.9z"/>
	<path d="M149.2,149.3c8.1,0,16.2-0.1,24.3,0c13.7,0.1,24.5,11.2,24.4,24.9c-0.2,13-10.8,23.9-23.9,24c-16.5,0.2-32.9,0.2-49.4,0
		c-13.4-0.1-24.1-11.3-24-24.7c0.1-13.2,10.9-24.1,24.3-24.2C132.9,149.3,141.1,149.3,149.2,149.3z M149.2,187.7
		C149.2,187.7,149.2,187.7,149.2,187.7c8,0,16.1,0,24.1,0c0.3,0,0.6,0,0.9,0c8.7-0.4,14.9-8.9,12.7-17.3c-1.7-6.7-7-10.6-14.5-10.7
		c-12,0-24.1,0-36.1,0c-4.2,0-8.4-0.1-12.5,0.2c-5.7,0.4-9.7,3.5-11.8,8.8c-3.6,8.9,2.8,18.7,12.4,19
		C132.7,187.9,140.9,187.7,149.2,187.7z"/>
</g>
<path class="st2" d="M232.1,113.9c-4.6,2.8-7.9,7-13.4,7.7c-4.3,0.6-8.3-0.1-11.9-2.8c-2.2-1.6-4.3-3.3-6.6-4.8
	c-11.2-7.2-25.5-6.9-36.5,0.8c-1.8,1.3-3.5,2.7-5.3,4c-5.7,4.1-12.9,4.1-18.6,0c-2.1-1.6-4.2-3.3-6.5-4.7c-11.3-7.3-25.7-7-36.6,0.8
	c-1.9,1.3-3.6,2.7-5.5,4.1c-5.5,3.9-12.7,3.9-18.1,0c-2.2-1.6-4.4-3.3-6.8-5.1c0.6-0.6,1.1-1,1.6-1.5c5.2-4.5,10.5-9,15.8-13.5
	c0.7-0.6,1.8-1,2.7-1c31-0.1,62,0,93-0.1c0.9,0,1.9,0,2.8-0.2c2.7-0.5,4.4-2.6,4.4-5.2c0-2.6-1.9-4.8-4.6-5.2
	c-0.8-0.1-1.6-0.1-2.5-0.1c-29.2,0-58.3,0-87.5,0c-3.2,0-4.7-1.5-4.8-4.7c-0.1-1.4-0.1-2.8,0-4.2c0.1-3.1,2-5.1,5.1-5.4
	c0.6-0.1,1.3-0.1,1.9-0.1c36.6,0,73.3,0,109.9,0c0.9,0,1.9,0,2.8,0.3c1,0.3,2,0.8,2.7,1.6c3,3.2,1.7,10.9-2.1,13
	c-2.4,1.3-3.5,3.4-3,5.8c0.5,2.5,2.4,4.1,5.1,4.3c0.3,0,0.6,0.1,0.9,0c2-0.3,3.6,0.5,5.1,1.9C221,104.4,226.4,109,232.1,113.9z"/>
<path class="st2" d="M149.2,187.7c-8.2,0-16.5,0.2-24.7,0c-9.6-0.2-16-10-12.4-19c2.1-5.3,6.1-8.4,11.8-8.8
	c4.2-0.3,8.4-0.1,12.5-0.2c12,0,24.1,0,36.1,0c7.5,0,12.8,4,14.5,10.7c2.1,8.4-4.1,16.8-12.7,17.3c-0.3,0-0.6,0-0.9,0
	C165.2,187.8,157.2,187.8,149.2,187.7C149.2,187.7,149.2,187.7,149.2,187.7z"/>
</svg>
